Coordinates
version=1
nRows=19
nColumns=24
inDegrees=yes

Units are S.I. units (second, meters, Newtons, ...)
Angles are in degrees.

endheader
time	pelvis_tilt	pelvis_list	pelvis_rotation	pelvis_tx	pelvis_ty	pelvis_tz	hip_flexion_r	hip_adduction_r	hip_rotation_r	knee_angle_r	ankle_angle_r	subtalar_angle_r	mtp_angle_r	hip_flexion_l	hip_adduction_l	hip_rotation_l	knee_angle_l	ankle_angle_l	subtalar_angle_l	mtp_angle_l	lumbar_extension	lumbar_bending	lumbar_rotation
      3.78000000	      5.03212530	      4.07037298	      3.05983131	      0.14389431	      1.02510082	      0.03597489	    -17.15298595	      0.56327145	     -8.01447407	     -1.48657087	     12.36818396	      0.00000000	      0.00000000	     12.82478021	      3.04049771	     -0.12282416	    -10.70767114	      6.09759488	      0.00000000	      0.00000000	    -18.64902703	     -4.84364254	      3.92950814
      3.79000000	      4.89814169	      4.12548017	      3.13713501	      0.14363287	      1.02356206	      0.03462134	    -17.36714139	      0.47790224	     -8.06120711	     -1.76711470	     12.84939486	      0.00000000	      0.00000000	     12.27803816	      3.27782478	      0.51281946	     -7.86752710	      5.93594635	      0.00000000	      0.00000000	    -18.55927574	     -4.90725024	      3.82112178
      3.80000000	      5.01211053	      4.23559490	      3.16538619	      0.14367744	      1.02232092	      0.03323368	    -17.92902440	      0.34056608	     -8.09567321	     -1.91327953	     13.21836709	      0.00000000	      0.00000000	     11.51334332	      3.56028543	      0.97558387	     -5.50703158	      5.86255603	      0.00000000	      0.00000000	    -18.71782143	     -5.02205853	      3.72724231
      3.81000000	      5.00570004	      4.28267633	      3.26537093	      0.14371928	      1.02082755	      0.03174807	    -18.24932282	      0.26786164	     -8.13181326	     -2.31052069	     13.75075307	      0.00000000	      0.00000000	     11.11045729	      3.80152896	      1.46400420	     -3.94498907	      5.82059744	      0.00000000	      0.00000000	    -18.73046062	     -5.07507088	      3.58309723
      3.82000000	      5.10279135	      4.38232485	      3.35242343	      0.14390373	      1.01948409	      0.03026788	    -18.66722095	      0.14093935	     -8.17057735	     -2.75799492	     14.25725817	      0.00000000	      0.00000000	     10.74000177	      4.10827764	      1.80763508	     -3.03746390	      5.82853322	      0.00000000	      0.00000000	    -18.84167150	     -5.18951830	      3.42894590
      3.83000000	      5.04380265	      4.32307726	      3.38820325	      0.14422171	      1.01793902	      0.02891653	    -18.99287000	      0.16867473	     -8.13686318	     -2.97143724	     14.26968444	      0.00000000	      0.00000000	     10.80952532	      4.26593126	      1.82629219	     -2.98915431	      5.83748103	      0.00000000	      0.00000000	    -18.71775826	     -5.17499780	      3.44451756
      3.84000000	      5.35823874	      4.60146328	      3.56802603	      0.14456396	      1.01695309	      0.02721174	    -19.45734708	     -0.13695712	     -8.26845212	     -3.94153443	     15.25228016	      0.00000000	      0.00000000	     10.43430510	      4.79713954	      2.34107371	     -3.20413987	      5.93786245	      0.00000000	      0.00000000	    -19.08519665	     -5.46179799	      3.11986738
      3.85000000	      5.50644593	      4.68823733	      3.62790206	      0.14516751	      1.01584677	      0.02573928	    -19.88212339	     -0.27704778	     -8.15449115	     -4.52041354	     15.38954795	      0.00000000	      0.00000000	     10.39852454	      5.11601736	      2.52065765	     -3.96705059	      5.69628720	      0.00000000	      0.00000000	    -19.17803959	     -5.59466068	      3.00523310
      3.86000000	      5.79511939	      4.86573670	      3.76289747	      0.14585284	      1.01493144	      0.02408518	    -20.29984543	     -0.48683999	     -8.46826532	     -5.50927885	     16.14210833	      0.00000000	      0.00000000	     10.35289604	      5.55893410	      2.63825428	     -5.24125084	      5.69801621	      0.00000000	      0.00000000	    -19.43478333	     -5.79514735	      2.80687590
      3.87000000	      5.83698623	      4.93868730	      3.86736182	      0.14660308	      1.01373527	      0.02248298	    -20.34869032	     -0.64685530	     -8.55361880	     -6.68539037	     16.70189180	      0.00000000	      0.00000000	     10.67297923	      5.88792292	      2.85779048	     -6.84460934	      5.56642986	      0.00000000	      0.00000000	    -19.37929206	     -5.92486778	      2.70560088
      3.88000000	      6.07156524	      5.00032745	      3.86046256	      0.14779768	      1.01303532	      0.02109101	    -20.78764462	     -0.79216850	     -8.43785261	     -7.45452597	     16.65285028	      0.00000000	      0.00000000	     10.64042034	      6.15325031	      3.10655205	     -8.26935527	      5.05629684	      0.00000000	      0.00000000	    -19.48330579	     -6.07607842	      2.75876504
      3.89000000	      6.26991080	      5.01679198	      4.01951945	      0.14889313	      1.01225331	      0.01951052	    -20.89276008	     -0.87181709	     -8.76367459	     -8.89809470	     17.13132291	      0.00000000	      0.00000000	     10.83958682	      6.40495719	      3.15373173	    -10.12958329	      4.91976264	      0.00000000	      0.00000000	    -19.56863083	     -6.14352368	      2.61369421
      3.90000000	      6.06568445	      4.93490710	      4.06518641	      0.15001340	      1.01105174	      0.01804323	    -20.40324779	     -0.96602414	     -8.67202903	    -10.59162019	     17.41469495	      0.00000000	      0.00000000	     11.44545784	      6.54211531	      3.33813237	    -11.91691092	      4.68116906	      0.00000000	      0.00000000	    -19.16357961	     -6.17134162	      2.66096357
      3.91000000	      6.31254909	      4.95415904	      4.02580370	      0.15175524	      1.01087613	      0.01669547	    -20.67301348	     -1.11459926	     -8.57136214	    -11.71768201	     17.05761297	      0.00000000	      0.00000000	     11.26112374	      6.72130779	      3.66690112	    -13.18115112	      4.25960392	      0.00000000	      0.00000000	    -19.21662254	     -6.30291718	      2.75403832
      3.92000000	      6.56616883	      4.93722146	      4.04455678	      0.15336318	      1.01088341	      0.01527614	    -20.66303541	     -1.24446816	     -8.64221317	    -13.40393891	     16.65165701	      0.00000000	      0.00000000	     11.06110198	      6.86173177	      3.88696767	    -14.39567613	      4.04168319	      0.00000000	      0.00000000	    -19.30882052	     -6.37355279	      2.74408556
      3.93000000	      6.03332328	      4.82767369	      3.97534541	      0.15464553	      1.00969046	      0.01390136	    -19.20184418	     -1.48712128	     -8.66149342	    -16.27996382	     16.92477587	      0.00000000	      0.00000000	     11.83823241	      6.93713122	      3.88323083	    -15.79497227	      4.22728599	      0.00000000	      0.00000000	    -18.50917405	     -6.43546425	      2.91319384
      3.94000000	      6.32889953	      4.81040210	      3.96237586	      0.15648453	      1.01024345	      0.01258104	    -19.11883522	     -1.64005508	     -8.53550459	    -18.08216936	     16.01307283	      0.00000000	      0.00000000	     11.38547642	      7.04522427	      4.25859700	    -16.61994531	      4.21247046	      0.00000000	      0.00000000	    -18.63962462	     -6.51418408	      2.87483436
      3.95000000	      6.00410878	      4.85835563	      3.72727663	      0.15803852	      1.00984801	      0.01122920	    -17.67479497	     -2.15025135	     -8.63942959	    -21.23085868	     15.45311557	      0.00000000	      0.00000000	     11.59206876	      7.22519056	      4.17385170	    -17.38301080	      4.66243443	      0.00000000	      0.00000000	    -18.06484154	     -6.73796507	      3.09822050
      3.96000000	      5.93129847	      4.87748473	      3.57783668	      0.15968468	      1.01006779	      0.00987453	    -16.60229436	     -2.54021719	     -8.56936384	    -24.06218183	     14.36095796	      0.00000000	      0.00000000	     11.44123453	      7.36110381	      4.27012032	    -18.01600755	      5.06654618	      0.00000000	      0.00000000	    -17.78784200	     -6.88887271	      3.15841268
